# xmcd
#
# Track frame offsets: 
#        150
#        23400
#        43021
#        66431
#        83891
#        119116
#        133681
#        161880
#        178667
#        197172
#        212852
#        220441
#        235391
#        270029
#        290544
#        310869
#        328109
#        347803
#        355878
#
# Disc length: 4771 seconds
#
# Revision: 0
# Processed by: cddbd v1.5.2PL0 Copyright (c) Steve Scherf et al.
# Submitted via: ExactAudioCopy v1.3
#
DISCID=3112a113
DTITLE=Various Artist - Blues - Golden Age '60s -'70s  vol.08  CD2
DYEAR=2018
DGENRE=Rock
TTITLE0=Livin' Blues - 1970 - Wang Dang Doodle
TTITLE1=Stan Webb's Chicken Shack - 1978 - It Wasn't Me
TTITLE2=The Bugs Henderson Group - 1978 - Honest I Do
TTITLE3=Nazareth (1976) - Lift The Lid
TTITLE4=Warhorse (1971) - Back In Time
TTITLE5=Taste (1969) - Dual Carriageway Pain
TTITLE6=Humble Pie - 1970 - Red Light Mamma, Red Hot!
TTITLE7=Johnny Winter - 1973 - Still Alive and Well
TTITLE8=Deep Purple (1974) - The Gypsy
TTITLE9=Jimi Hendrix (1970) - Freedom
TTITLE10=The Beatles - 1968 - Why Don't We Do It In The Road
TTITLE11=Geordie (1973) - Keep On Rockin'
TTITLE12=Creedence Clearwater Revival (1969) - Keep On Chooglin'
TTITLE13=Edgar Winter - 1971 - Give It Everything You Got
TTITLE14=Janis Joplin - 1970 - Me And Bobby McGee
TTITLE15=Freddie King - 1974 - Only Getting Second Best
TTITLE16=Roy Buchanan - 1971 - Stormy Monday
TTITLE17=Janis Joplin - 1970 - Mercedes Benz
TTITLE18=The Beatles - 1969 - Her Majesty
EXTD=
EXTT0=
EXTT1=
EXTT2=
EXTT3=
EXTT4=
EXTT5=
EXTT6=
EXTT7=
EXTT8=
EXTT9=
EXTT10=
EXTT11=
EXTT12=
EXTT13=
EXTT14=
EXTT15=
EXTT16=
EXTT17=
EXTT18=
PLAYORDER=
